G04*
G04 #@! TF.GenerationSoftware,Altium Limited,Altium Designer,26.9.1 (10)*
G04*
G04 Layer_Physical_Order=1*
G04 Layer_Color=255*
G04 Board_Origin=0|0*
%FSLAX44Y44*%
%MOMM*%
G71*
G04*
G04 #@! TF.SameCoordinates,B2B52973-217B-4F95-AEE4-472758282C3E*
G04*
G04*
G04 #@! TF.FilePolarity,Positive*
G04*
G01*
G75*
%ADD10C,0.2500*%
%ADD13C,1.7000*%
%ADD14R,3.5000X3.5000*%
%ADD15R,1.5000X1.5000*%
%ADD16R,1.5000X1.5000*%
%ADD17C,1.5000*%
%ADD18C,2.0000*%
%ADD19C,1.5000*%
%ADD20C,1.7500*%
%ADD21C,1.7000*%
%ADD22C,1.0000*%
%ADD23C,1.2000*%
%ADD24C,2.5000*%
%ADD25C,2.2000*%
D10*
X357000Y230065D02*
X358465Y228600D01*
X795020D02*
X810000Y213620D01*
X357000Y230065D02*
Y300000D01*
X358465Y228600D02*
X795020D01*
X534800Y300000D02*
X535940Y298860D01*
Y280670D02*
Y298860D01*
Y280670D02*
X539750Y276860D01*
X726440D01*
X730000Y280420D01*
Y300990D01*
X511810Y262890D02*
X751840D01*
X485335Y250000D02*
X810000D01*
X751840Y262890D02*
X755000Y266050D01*
X483870Y251465D02*
X485335Y250000D01*
X509400Y265300D02*
X511810Y262890D01*
X755000Y266050D02*
Y300990D01*
X810000Y100000D02*
Y213620D01*
X509400Y265300D02*
Y300000D01*
X483870Y299870D02*
X484000Y300000D01*
X483870Y251465D02*
Y299870D01*
X400600Y50000D02*
Y99335D01*
X399136Y100800D02*
X400600Y99335D01*
X50000Y100800D02*
X399136D01*
X375200Y50000D02*
Y73935D01*
X373736Y75400D02*
X375200Y73935D01*
X50000Y75400D02*
X373736D01*
X476800Y50000D02*
Y150135D01*
X475336Y151600D02*
X476800Y150135D01*
X50000Y151600D02*
X475336D01*
X451400Y50000D02*
Y124735D01*
X50000Y126200D02*
X449935D01*
X451400Y124735D01*
D13*
X835000Y150000D02*
D03*
X935000D02*
D03*
X835000Y250000D02*
D03*
Y201930D02*
D03*
Y100000D02*
D03*
X725000Y90000D02*
D03*
X720000Y50000D02*
D03*
X150000Y385000D02*
D03*
X935000Y201930D02*
D03*
X860000Y250000D02*
D03*
Y100000D02*
D03*
X820000Y50000D02*
D03*
X750000Y90000D02*
D03*
X150000Y360000D02*
D03*
X810000Y100000D02*
D03*
Y250000D02*
D03*
X250000Y350000D02*
D03*
X910000Y385000D02*
D03*
X935000D02*
D03*
X460000Y650000D02*
D03*
Y600000D02*
D03*
Y625000D02*
D03*
X250000Y450000D02*
D03*
X150000Y410000D02*
D03*
X755000Y300990D02*
D03*
X730000D02*
D03*
D14*
X845110Y540490D02*
D03*
Y361420D02*
D03*
X433630D02*
D03*
X434900Y540490D02*
D03*
D15*
X680000Y50000D02*
D03*
X230000Y300000D02*
D03*
D16*
X50000Y50000D02*
D03*
D17*
Y177000D02*
D03*
X553000Y50000D02*
D03*
X357000Y300000D02*
D03*
X484000D02*
D03*
X255400D02*
D03*
X280800D02*
D03*
X306200D02*
D03*
X331600D02*
D03*
X382400D02*
D03*
X407800D02*
D03*
X433200D02*
D03*
X458600D02*
D03*
X509400D02*
D03*
X534800D02*
D03*
X560200D02*
D03*
X585600D02*
D03*
X611000D02*
D03*
X636400D02*
D03*
X661800D02*
D03*
X687200D02*
D03*
X654600Y50000D02*
D03*
X629200D02*
D03*
X603800D02*
D03*
X578400D02*
D03*
X527600D02*
D03*
X502200D02*
D03*
X476800D02*
D03*
X451400D02*
D03*
X426000D02*
D03*
X400600D02*
D03*
X375200D02*
D03*
X349800D02*
D03*
X324400D02*
D03*
X299000D02*
D03*
X273600D02*
D03*
X248200D02*
D03*
X222800D02*
D03*
X50000Y75400D02*
D03*
Y100800D02*
D03*
Y126200D02*
D03*
Y151600D02*
D03*
D18*
X340000Y450000D02*
X375000Y485000D01*
Y540000D01*
X150000D02*
Y620000D01*
X375000Y540000D02*
X375245Y540245D01*
X434655D01*
X434900Y540490D01*
D19*
X250000Y450000D02*
X326810D01*
X327660Y450850D02*
X328144D01*
X326810Y450000D02*
X327660Y450850D01*
X433630Y361420D02*
X434843Y362633D01*
Y392633D01*
X652210Y610000D01*
X877370Y496570D02*
Y608930D01*
Y417630D02*
Y496570D01*
X908661Y498661D02*
X910000Y500000D01*
X903711Y498661D02*
X908661D01*
X901620Y496570D02*
X903711Y498661D01*
X877370Y496570D02*
X901620D01*
X876300Y610000D02*
X877370Y608930D01*
X876300Y610000D02*
X910000D01*
X877370Y417630D02*
X910000Y385000D01*
X250000Y668077D02*
X251213Y669290D01*
X250000Y450000D02*
Y668077D01*
X99060Y460940D02*
X150000Y410000D01*
X99060Y460940D02*
Y660503D01*
X107847Y669290D01*
X251213D01*
X652210Y610000D02*
X876300D01*
D20*
X342029Y350000D02*
X352236Y360207D01*
X432417D01*
X250000Y350000D02*
X342029D01*
X200000Y400000D02*
X250000Y350000D01*
D21*
X200000Y400000D02*
Y620000D01*
D22*
X185538Y333518D02*
X192366Y326690D01*
X666287Y36287D02*
X680000Y50000D01*
X659216Y27500D02*
X666287Y34571D01*
X213480Y27500D02*
X659216D01*
X663732Y326690D02*
X678180Y341138D01*
X666287Y34571D02*
Y36287D01*
X192366Y326690D02*
X663732D01*
X792698Y50000D02*
X820000D01*
X750000Y90000D02*
X751894D01*
X755394Y86500D01*
X756198D02*
X792698Y50000D01*
X755394Y86500D02*
X756198D01*
X748661Y91339D02*
X750000Y90000D01*
X748661Y91339D02*
Y96735D01*
X668396Y177000D02*
X748661Y96735D01*
X553000Y177000D02*
X668396D01*
X910000Y100000D02*
X942340Y67660D01*
Y28718D02*
Y67660D01*
X915000Y102296D02*
X935000Y122296D01*
X910574Y102296D02*
X915000D01*
X935000Y122296D02*
Y150000D01*
X936339Y151339D01*
Y156289D01*
X937260Y157210D01*
Y197776D01*
X935000Y200036D02*
X937260Y197776D01*
X935000Y200036D02*
Y201930D01*
X847140Y22860D02*
X936482D01*
X942340Y28718D01*
X725000Y88106D02*
Y90000D01*
X720000Y83106D02*
X725000Y88106D01*
X720000Y50000D02*
Y83106D01*
X680000Y50000D02*
X720000D01*
X805097Y78740D02*
X833120D01*
X755650Y128187D02*
X805097Y78740D01*
X820000Y50000D02*
X847140Y22860D01*
X874560Y50000D02*
X910000D01*
X833120Y78740D02*
X861060Y50800D01*
X873760D01*
X874560Y50000D01*
X755650Y128187D02*
Y196072D01*
X908070Y201930D02*
X935000D01*
X150000Y207788D02*
X155858Y201930D01*
X749792D01*
X150000Y207788D02*
Y360000D01*
X749792Y201930D02*
X755650Y196072D01*
X835000Y150000D02*
Y201930D01*
Y100000D02*
Y150000D01*
X50000Y177000D02*
X553000D01*
Y50000D02*
Y177000D01*
X185538Y333518D02*
Y377682D01*
X50000Y208820D02*
Y383540D01*
X51460Y385000D02*
X150000D01*
X50000Y383540D02*
X51460Y385000D01*
X860000Y250000D02*
X908070Y201930D01*
X835000Y300990D02*
X944142D01*
X950000Y295132D01*
Y250000D02*
Y295132D01*
X835000Y300990D02*
Y326882D01*
Y250000D02*
Y300990D01*
Y201930D02*
Y250000D01*
X935000Y201930D02*
X975852D01*
X981710Y207788D01*
Y344142D01*
X975852Y350000D02*
X981710Y344142D01*
X950000Y350000D02*
X975852D01*
X845110Y361420D02*
X856530Y350000D01*
X950000D01*
X150000Y385000D02*
X178220D01*
X185538Y377682D01*
X678180Y341138D02*
Y550490D01*
X774700D01*
X990280Y390618D02*
Y675034D01*
X970280Y450000D02*
Y666750D01*
X502913D02*
X970280D01*
X910000Y450000D02*
X970280D01*
X978564Y686750D02*
X990280Y675034D01*
X979662Y380000D02*
X990280Y390618D01*
X460000Y650000D02*
Y678672D01*
X468078Y686750D01*
X978564D01*
X461163Y625000D02*
X502913Y666750D01*
X460000Y625000D02*
X461163D01*
X860000Y100000D02*
X910000D01*
X774700Y550490D02*
X825110D01*
X774700Y332740D02*
Y550490D01*
X829142Y332740D02*
X835000Y326882D01*
X774700Y332740D02*
X829142D01*
X27500Y66080D02*
Y186320D01*
X50000Y208820D01*
X190980Y50000D02*
X213480Y27500D01*
X41642Y52900D02*
X42042Y52500D01*
X47500D01*
X27500Y66080D02*
X40680Y52900D01*
X41642D01*
X50000Y50000D02*
X190980D01*
X47500Y52500D02*
X50000Y50000D01*
X935000Y380000D02*
X979662D01*
D23*
X910000Y560000D02*
X944880Y594880D01*
Y641350D01*
X640462D02*
X944880D01*
X599112Y600000D02*
X640462Y641350D01*
X460000Y600000D02*
X599112D01*
D24*
X950000Y250000D02*
D03*
Y350000D02*
D03*
X150000Y540000D02*
D03*
X340000Y350000D02*
D03*
X375000Y540000D02*
D03*
X340000Y450000D02*
D03*
D25*
X910000Y100000D02*
D03*
Y50000D02*
D03*
X200000Y620000D02*
D03*
X150000D02*
D03*
X910000Y500000D02*
D03*
Y610000D02*
D03*
Y450000D02*
D03*
Y560000D02*
D03*
M02*
