G04*
G04 #@! TF.GenerationSoftware,Altium Limited,Altium Designer,26.9.1 (10)*
G04*
G04 Layer_Color=128*
G04 Board_Origin=0|0*
%FSLAX44Y44*%
%MOMM*%
G71*
G04*
G04 #@! TF.SameCoordinates,B2B52973-217B-4F95-AEE4-472758282C3E*
G04*
G04*
G04 #@! TF.FilePolarity,Positive*
G04*
G01*
G75*
%ADD26C,0.1270*%
D26*
X830000Y150000D02*
X840000D01*
X835000Y145000D02*
Y155000D01*
X930000Y150000D02*
X940000D01*
X935000Y145000D02*
Y155000D01*
X945000Y250000D02*
X955000D01*
X950000Y245000D02*
Y255000D01*
X838610Y540490D02*
X851610D01*
X845110Y533990D02*
Y546990D01*
X830000Y250000D02*
X840000D01*
X835000Y245000D02*
Y255000D01*
X830000Y201930D02*
X840000D01*
X835000Y196930D02*
Y206930D01*
X830000Y100000D02*
X840000D01*
X835000Y95000D02*
Y105000D01*
X720000Y90000D02*
X730000D01*
X725000Y85000D02*
Y95000D01*
X715000Y50000D02*
X725000D01*
X720000Y45000D02*
Y55000D01*
X145000Y385000D02*
X155000D01*
X150000Y380000D02*
Y390000D01*
X675500Y50000D02*
X684500D01*
X680000Y45500D02*
Y54500D01*
X45500Y50000D02*
X54500D01*
X50000Y45500D02*
Y54500D01*
X945000Y350000D02*
X955000D01*
X950000Y345000D02*
Y355000D01*
X930000Y201930D02*
X940000D01*
X935000Y196930D02*
Y206930D01*
X855000Y250000D02*
X865000D01*
X860000Y245000D02*
Y255000D01*
X903500Y100000D02*
X916500D01*
X910000Y93500D02*
Y106500D01*
X838610Y361420D02*
X851610D01*
X845110Y354920D02*
Y367920D01*
X855000Y100000D02*
X865000D01*
X860000Y95000D02*
Y105000D01*
X815000Y50000D02*
X825000D01*
X820000Y45000D02*
Y55000D01*
X45500Y177000D02*
X54500D01*
X50000Y172500D02*
Y181500D01*
X745000Y90000D02*
X755000D01*
X750000Y85000D02*
Y95000D01*
X548500Y50000D02*
X557500D01*
X553000Y45500D02*
Y54500D01*
X903500Y50000D02*
X916500D01*
X910000Y43500D02*
Y56500D01*
X145000Y360000D02*
X155000D01*
X150000Y355000D02*
Y365000D01*
X805000Y100000D02*
X815000D01*
X810000Y95000D02*
Y105000D01*
X352500Y300000D02*
X361500D01*
X357000Y295500D02*
Y304500D01*
X805000Y250000D02*
X815000D01*
X810000Y245000D02*
Y255000D01*
X479500Y300000D02*
X488500D01*
X484000Y295500D02*
Y304500D01*
X193500Y620000D02*
X206500D01*
X200000Y613500D02*
Y626500D01*
X143500Y620000D02*
X156500D01*
X150000Y613500D02*
Y626500D01*
X143500Y540000D02*
X156500D01*
X150000Y533500D02*
Y546500D01*
X427130Y361420D02*
X440130D01*
X433630Y354920D02*
Y367920D01*
X245000Y350000D02*
X255000D01*
X250000Y345000D02*
Y355000D01*
X335000Y350000D02*
X345000D01*
X340000Y345000D02*
Y355000D01*
X905000Y385000D02*
X915000D01*
X910000Y380000D02*
Y390000D01*
X903500Y500000D02*
X916500D01*
X910000Y493500D02*
Y506500D01*
X903500Y610000D02*
X916500D01*
X910000Y603500D02*
Y616500D01*
X225500Y300000D02*
X234500D01*
X230000Y295500D02*
Y304500D01*
X250900Y300000D02*
X259900D01*
X255400Y295500D02*
Y304500D01*
X276300Y300000D02*
X285300D01*
X280800Y295500D02*
Y304500D01*
X301700Y300000D02*
X310700D01*
X306200Y295500D02*
Y304500D01*
X327100Y300000D02*
X336100D01*
X331600Y295500D02*
Y304500D01*
X377900Y300000D02*
X386900D01*
X382400Y295500D02*
Y304500D01*
X403300Y300000D02*
X412300D01*
X407800Y295500D02*
Y304500D01*
X428700Y300000D02*
X437700D01*
X433200Y295500D02*
Y304500D01*
X454100Y300000D02*
X463100D01*
X458600Y295500D02*
Y304500D01*
X504900Y300000D02*
X513900D01*
X509400Y295500D02*
Y304500D01*
X530300Y300000D02*
X539300D01*
X534800Y295500D02*
Y304500D01*
X555700Y300000D02*
X564700D01*
X560200Y295500D02*
Y304500D01*
X581100Y300000D02*
X590100D01*
X585600Y295500D02*
Y304500D01*
X606500Y300000D02*
X615500D01*
X611000Y295500D02*
Y304500D01*
X631900Y300000D02*
X640900D01*
X636400Y295500D02*
Y304500D01*
X657300Y300000D02*
X666300D01*
X661800Y295500D02*
Y304500D01*
X682700Y300000D02*
X691700D01*
X687200Y295500D02*
Y304500D01*
X650100Y50000D02*
X659100D01*
X654600Y45500D02*
Y54500D01*
X624700Y50000D02*
X633700D01*
X629200Y45500D02*
Y54500D01*
X599300Y50000D02*
X608300D01*
X603800Y45500D02*
Y54500D01*
X573900Y50000D02*
X582900D01*
X578400Y45500D02*
Y54500D01*
X523100Y50000D02*
X532100D01*
X527600Y45500D02*
Y54500D01*
X497700Y50000D02*
X506700D01*
X502200Y45500D02*
Y54500D01*
X472300Y50000D02*
X481300D01*
X476800Y45500D02*
Y54500D01*
X446900Y50000D02*
X455900D01*
X451400Y45500D02*
Y54500D01*
X421500Y50000D02*
X430500D01*
X426000Y45500D02*
Y54500D01*
X396100Y50000D02*
X405100D01*
X400600Y45500D02*
Y54500D01*
X370700Y50000D02*
X379700D01*
X375200Y45500D02*
Y54500D01*
X345300Y50000D02*
X354300D01*
X349800Y45500D02*
Y54500D01*
X319900Y50000D02*
X328900D01*
X324400Y45500D02*
Y54500D01*
X294500Y50000D02*
X303500D01*
X299000Y45500D02*
Y54500D01*
X269100Y50000D02*
X278100D01*
X273600Y45500D02*
Y54500D01*
X243700Y50000D02*
X252700D01*
X248200Y45500D02*
Y54500D01*
X218300Y50000D02*
X227300D01*
X222800Y45500D02*
Y54500D01*
X930000Y385000D02*
X940000D01*
X935000Y380000D02*
Y390000D01*
X903500Y450000D02*
X916500D01*
X910000Y443500D02*
Y456500D01*
X903500Y560000D02*
X916500D01*
X910000Y553500D02*
Y566500D01*
X455000Y650000D02*
X465000D01*
X460000Y645000D02*
Y655000D01*
X455000Y600000D02*
X465000D01*
X460000Y595000D02*
Y605000D01*
X455000Y625000D02*
X465000D01*
X460000Y620000D02*
Y630000D01*
X368500Y540000D02*
X381500D01*
X375000Y533500D02*
Y546500D01*
X428400Y540490D02*
X441400D01*
X434900Y533990D02*
Y546990D01*
X245000Y450000D02*
X255000D01*
X250000Y445000D02*
Y455000D01*
X335000Y450000D02*
X345000D01*
X340000Y445000D02*
Y455000D01*
X145000Y410000D02*
X155000D01*
X150000Y405000D02*
Y415000D01*
X750000Y300990D02*
X760000D01*
X755000Y295990D02*
Y305990D01*
X725000Y300990D02*
X735000D01*
X730000Y295990D02*
Y305990D01*
X45500Y75400D02*
X54500D01*
X50000Y70900D02*
Y79900D01*
X45500Y100800D02*
X54500D01*
X50000Y96300D02*
Y105300D01*
X45500Y126200D02*
X54500D01*
X50000Y121700D02*
Y130700D01*
X45500Y151600D02*
X54500D01*
X50000Y147100D02*
Y156100D01*
M02*
