G04*
G04 #@! TF.GenerationSoftware,Altium Limited,Altium Designer,26.9.1 (10)*
G04*
G04 Layer_Color=2752767*
G04 Board_Origin=0|0*
%FSLAX44Y44*%
%MOMM*%
G71*
G04*
G04 #@! TF.SameCoordinates,B2B52973-217B-4F95-AEE4-472758282C3E*
G04*
G04*
G04 #@! TF.FilePolarity,Positive*
G04*
G01*
G75*
%ADD26C,0.1270*%
%ADD27C,0.1693*%
D26*
X835000Y144920D02*
X829920Y155080D01*
X840080D01*
X835000Y144920D01*
X935000D02*
X929920Y155080D01*
X940080D01*
X935000Y144920D01*
X944920Y244920D02*
Y255080D01*
X955080D01*
Y244920D01*
X944920D01*
X829920D02*
Y255080D01*
X840080D01*
Y244920D01*
X829920D01*
X835000Y196850D02*
X829920Y207010D01*
X840080D01*
X835000Y196850D01*
X829920Y94920D02*
Y105080D01*
X840080D01*
Y94920D01*
X829920D01*
X725000Y84920D02*
X719920Y95080D01*
X730080D01*
X725000Y84920D01*
X720000Y44920D02*
X714920Y55080D01*
X725080D01*
X720000Y44920D01*
X144920Y379920D02*
Y390080D01*
X155080D01*
Y379920D01*
X144920D01*
X680000Y44920D02*
X682540Y47460D01*
X685080D01*
X682540Y50000D01*
X685080Y52540D01*
X682540D01*
X680000Y55080D01*
X677460Y52540D01*
X674920D01*
X677460Y50000D01*
X674920Y47460D01*
X677460D01*
X680000Y44920D01*
X50000D02*
X52540Y47460D01*
X55080D01*
X52540Y50000D01*
X55080Y52540D01*
X52540D01*
X50000Y55080D01*
X47460Y52540D01*
X44920D01*
X47460Y50000D01*
X44920Y47460D01*
X47460D01*
X50000Y44920D01*
X944920Y344920D02*
Y355080D01*
X955080D01*
Y344920D01*
X944920D01*
X935000Y196850D02*
X929920Y207010D01*
X940080D01*
X935000Y196850D01*
X854920Y244920D02*
Y255080D01*
X865080D01*
Y244920D01*
X854920D01*
Y94920D02*
Y105080D01*
X865080D01*
Y94920D01*
X854920D01*
X820000Y44920D02*
X814920Y55080D01*
X825080D01*
X820000Y44920D01*
X50000Y171920D02*
X52540Y174460D01*
X55080D01*
X52540Y177000D01*
X55080Y179540D01*
X52540D01*
X50000Y182080D01*
X47460Y179540D01*
X44920D01*
X47460Y177000D01*
X44920Y174460D01*
X47460D01*
X50000Y171920D01*
X750000Y84920D02*
X744920Y95080D01*
X755080D01*
X750000Y84920D01*
X553000Y44920D02*
X555540Y47460D01*
X558080D01*
X555540Y50000D01*
X558080Y52540D01*
X555540D01*
X553000Y55080D01*
X550460Y52540D01*
X547920D01*
X550460Y50000D01*
X547920Y47460D01*
X550460D01*
X553000Y44920D01*
X144920Y354920D02*
Y365080D01*
X155080D01*
Y354920D01*
X144920D01*
X804920Y94920D02*
Y105080D01*
X815080D01*
Y94920D01*
X804920D01*
X357000Y294920D02*
X359540Y297460D01*
X362080D01*
X359540Y300000D01*
X362080Y302540D01*
X359540D01*
X357000Y305080D01*
X354460Y302540D01*
X351920D01*
X354460Y300000D01*
X351920Y297460D01*
X354460D01*
X357000Y294920D01*
X804920Y244920D02*
Y255080D01*
X815080D01*
Y244920D01*
X804920D01*
X484000Y294920D02*
X486540Y297460D01*
X489080D01*
X486540Y300000D01*
X489080Y302540D01*
X486540D01*
X484000Y305080D01*
X481460Y302540D01*
X478920D01*
X481460Y300000D01*
X478920Y297460D01*
X481460D01*
X484000Y294920D01*
X250000Y344920D02*
X244920Y355080D01*
X255080D01*
X250000Y344920D01*
X334920Y344920D02*
Y355080D01*
X345080D01*
Y344920D01*
X334920D01*
X904920Y379920D02*
Y390080D01*
X915080D01*
Y379920D01*
X904920D01*
X230000Y294920D02*
X232540Y297460D01*
X235080D01*
X232540Y300000D01*
X235080Y302540D01*
X232540D01*
X230000Y305080D01*
X227460Y302540D01*
X224920D01*
X227460Y300000D01*
X224920Y297460D01*
X227460D01*
X230000Y294920D01*
X255400D02*
X257940Y297460D01*
X260480D01*
X257940Y300000D01*
X260480Y302540D01*
X257940D01*
X255400Y305080D01*
X252860Y302540D01*
X250320D01*
X252860Y300000D01*
X250320Y297460D01*
X252860D01*
X255400Y294920D01*
X280800D02*
X283340Y297460D01*
X285880D01*
X283340Y300000D01*
X285880Y302540D01*
X283340D01*
X280800Y305080D01*
X278260Y302540D01*
X275720D01*
X278260Y300000D01*
X275720Y297460D01*
X278260D01*
X280800Y294920D01*
X306200D02*
X308740Y297460D01*
X311280D01*
X308740Y300000D01*
X311280Y302540D01*
X308740D01*
X306200Y305080D01*
X303660Y302540D01*
X301120D01*
X303660Y300000D01*
X301120Y297460D01*
X303660D01*
X306200Y294920D01*
X331600D02*
X334140Y297460D01*
X336680D01*
X334140Y300000D01*
X336680Y302540D01*
X334140D01*
X331600Y305080D01*
X329060Y302540D01*
X326520D01*
X329060Y300000D01*
X326520Y297460D01*
X329060D01*
X331600Y294920D01*
X382400D02*
X384940Y297460D01*
X387480D01*
X384940Y300000D01*
X387480Y302540D01*
X384940D01*
X382400Y305080D01*
X379860Y302540D01*
X377320D01*
X379860Y300000D01*
X377320Y297460D01*
X379860D01*
X382400Y294920D01*
X407800D02*
X410340Y297460D01*
X412880D01*
X410340Y300000D01*
X412880Y302540D01*
X410340D01*
X407800Y305080D01*
X405260Y302540D01*
X402720D01*
X405260Y300000D01*
X402720Y297460D01*
X405260D01*
X407800Y294920D01*
X433200D02*
X435740Y297460D01*
X438280D01*
X435740Y300000D01*
X438280Y302540D01*
X435740D01*
X433200Y305080D01*
X430660Y302540D01*
X428120D01*
X430660Y300000D01*
X428120Y297460D01*
X430660D01*
X433200Y294920D01*
X458600D02*
X461140Y297460D01*
X463680D01*
X461140Y300000D01*
X463680Y302540D01*
X461140D01*
X458600Y305080D01*
X456060Y302540D01*
X453520D01*
X456060Y300000D01*
X453520Y297460D01*
X456060D01*
X458600Y294920D01*
X509400D02*
X511940Y297460D01*
X514480D01*
X511940Y300000D01*
X514480Y302540D01*
X511940D01*
X509400Y305080D01*
X506860Y302540D01*
X504320D01*
X506860Y300000D01*
X504320Y297460D01*
X506860D01*
X509400Y294920D01*
X534800D02*
X537340Y297460D01*
X539880D01*
X537340Y300000D01*
X539880Y302540D01*
X537340D01*
X534800Y305080D01*
X532260Y302540D01*
X529720D01*
X532260Y300000D01*
X529720Y297460D01*
X532260D01*
X534800Y294920D01*
X560200D02*
X562740Y297460D01*
X565280D01*
X562740Y300000D01*
X565280Y302540D01*
X562740D01*
X560200Y305080D01*
X557660Y302540D01*
X555120D01*
X557660Y300000D01*
X555120Y297460D01*
X557660D01*
X560200Y294920D01*
X585600D02*
X588140Y297460D01*
X590680D01*
X588140Y300000D01*
X590680Y302540D01*
X588140D01*
X585600Y305080D01*
X583060Y302540D01*
X580520D01*
X583060Y300000D01*
X580520Y297460D01*
X583060D01*
X585600Y294920D01*
X611000D02*
X613540Y297460D01*
X616080D01*
X613540Y300000D01*
X616080Y302540D01*
X613540D01*
X611000Y305080D01*
X608460Y302540D01*
X605920D01*
X608460Y300000D01*
X605920Y297460D01*
X608460D01*
X611000Y294920D01*
X636400D02*
X638940Y297460D01*
X641480D01*
X638940Y300000D01*
X641480Y302540D01*
X638940D01*
X636400Y305080D01*
X633860Y302540D01*
X631320D01*
X633860Y300000D01*
X631320Y297460D01*
X633860D01*
X636400Y294920D01*
X661800D02*
X664340Y297460D01*
X666880D01*
X664340Y300000D01*
X666880Y302540D01*
X664340D01*
X661800Y305080D01*
X659260Y302540D01*
X656720D01*
X659260Y300000D01*
X656720Y297460D01*
X659260D01*
X661800Y294920D01*
X687200D02*
X689740Y297460D01*
X692280D01*
X689740Y300000D01*
X692280Y302540D01*
X689740D01*
X687200Y305080D01*
X684660Y302540D01*
X682120D01*
X684660Y300000D01*
X682120Y297460D01*
X684660D01*
X687200Y294920D01*
X654600Y44920D02*
X657140Y47460D01*
X659680D01*
X657140Y50000D01*
X659680Y52540D01*
X657140D01*
X654600Y55080D01*
X652060Y52540D01*
X649520D01*
X652060Y50000D01*
X649520Y47460D01*
X652060D01*
X654600Y44920D01*
X629200D02*
X631740Y47460D01*
X634280D01*
X631740Y50000D01*
X634280Y52540D01*
X631740D01*
X629200Y55080D01*
X626660Y52540D01*
X624120D01*
X626660Y50000D01*
X624120Y47460D01*
X626660D01*
X629200Y44920D01*
X603800D02*
X606340Y47460D01*
X608880D01*
X606340Y50000D01*
X608880Y52540D01*
X606340D01*
X603800Y55080D01*
X601260Y52540D01*
X598720D01*
X601260Y50000D01*
X598720Y47460D01*
X601260D01*
X603800Y44920D01*
X578400D02*
X580940Y47460D01*
X583480D01*
X580940Y50000D01*
X583480Y52540D01*
X580940D01*
X578400Y55080D01*
X575860Y52540D01*
X573320D01*
X575860Y50000D01*
X573320Y47460D01*
X575860D01*
X578400Y44920D01*
X527600D02*
X530140Y47460D01*
X532680D01*
X530140Y50000D01*
X532680Y52540D01*
X530140D01*
X527600Y55080D01*
X525060Y52540D01*
X522520D01*
X525060Y50000D01*
X522520Y47460D01*
X525060D01*
X527600Y44920D01*
X502200D02*
X504740Y47460D01*
X507280D01*
X504740Y50000D01*
X507280Y52540D01*
X504740D01*
X502200Y55080D01*
X499660Y52540D01*
X497120D01*
X499660Y50000D01*
X497120Y47460D01*
X499660D01*
X502200Y44920D01*
X476800D02*
X479340Y47460D01*
X481880D01*
X479340Y50000D01*
X481880Y52540D01*
X479340D01*
X476800Y55080D01*
X474260Y52540D01*
X471720D01*
X474260Y50000D01*
X471720Y47460D01*
X474260D01*
X476800Y44920D01*
X451400D02*
X453940Y47460D01*
X456480D01*
X453940Y50000D01*
X456480Y52540D01*
X453940D01*
X451400Y55080D01*
X448860Y52540D01*
X446320D01*
X448860Y50000D01*
X446320Y47460D01*
X448860D01*
X451400Y44920D01*
X426000D02*
X428540Y47460D01*
X431080D01*
X428540Y50000D01*
X431080Y52540D01*
X428540D01*
X426000Y55080D01*
X423460Y52540D01*
X420920D01*
X423460Y50000D01*
X420920Y47460D01*
X423460D01*
X426000Y44920D01*
X400600D02*
X403140Y47460D01*
X405680D01*
X403140Y50000D01*
X405680Y52540D01*
X403140D01*
X400600Y55080D01*
X398060Y52540D01*
X395520D01*
X398060Y50000D01*
X395520Y47460D01*
X398060D01*
X400600Y44920D01*
X375200D02*
X377740Y47460D01*
X380280D01*
X377740Y50000D01*
X380280Y52540D01*
X377740D01*
X375200Y55080D01*
X372660Y52540D01*
X370120D01*
X372660Y50000D01*
X370120Y47460D01*
X372660D01*
X375200Y44920D01*
X349800D02*
X352340Y47460D01*
X354880D01*
X352340Y50000D01*
X354880Y52540D01*
X352340D01*
X349800Y55080D01*
X347260Y52540D01*
X344720D01*
X347260Y50000D01*
X344720Y47460D01*
X347260D01*
X349800Y44920D01*
X324400D02*
X326940Y47460D01*
X329480D01*
X326940Y50000D01*
X329480Y52540D01*
X326940D01*
X324400Y55080D01*
X321860Y52540D01*
X319320D01*
X321860Y50000D01*
X319320Y47460D01*
X321860D01*
X324400Y44920D01*
X299000D02*
X301540Y47460D01*
X304080D01*
X301540Y50000D01*
X304080Y52540D01*
X301540D01*
X299000Y55080D01*
X296460Y52540D01*
X293920D01*
X296460Y50000D01*
X293920Y47460D01*
X296460D01*
X299000Y44920D01*
X273600D02*
X276140Y47460D01*
X278680D01*
X276140Y50000D01*
X278680Y52540D01*
X276140D01*
X273600Y55080D01*
X271060Y52540D01*
X268520D01*
X271060Y50000D01*
X268520Y47460D01*
X271060D01*
X273600Y44920D01*
X248200D02*
X250740Y47460D01*
X253280D01*
X250740Y50000D01*
X253280Y52540D01*
X250740D01*
X248200Y55080D01*
X245660Y52540D01*
X243120D01*
X245660Y50000D01*
X243120Y47460D01*
X245660D01*
X248200Y44920D01*
X222800D02*
X225340Y47460D01*
X227880D01*
X225340Y50000D01*
X227880Y52540D01*
X225340D01*
X222800Y55080D01*
X220260Y52540D01*
X217720D01*
X220260Y50000D01*
X217720Y47460D01*
X220260D01*
X222800Y44920D01*
X929920Y379920D02*
Y390080D01*
X940080D01*
Y379920D01*
X929920D01*
X454920Y644920D02*
Y655080D01*
X465080D01*
Y644920D01*
X454920D01*
Y594920D02*
Y605080D01*
X465080D01*
Y594920D01*
X454920D01*
Y619920D02*
Y630080D01*
X465080D01*
Y619920D01*
X454920D01*
X250000Y444920D02*
X244920Y455080D01*
X255080D01*
X250000Y444920D01*
X334920Y444920D02*
Y455080D01*
X345080D01*
Y444920D01*
X334920D01*
X144920Y404920D02*
Y415080D01*
X155080D01*
Y404920D01*
X144920D01*
X749920Y295910D02*
Y306070D01*
X760080D01*
Y295910D01*
X749920D01*
X724920D02*
Y306070D01*
X735080D01*
Y295910D01*
X724920D01*
X50000Y70320D02*
X52540Y72860D01*
X55080D01*
X52540Y75400D01*
X55080Y77940D01*
X52540D01*
X50000Y80480D01*
X47460Y77940D01*
X44920D01*
X47460Y75400D01*
X44920Y72860D01*
X47460D01*
X50000Y70320D01*
Y95720D02*
X52540Y98260D01*
X55080D01*
X52540Y100800D01*
X55080Y103340D01*
X52540D01*
X50000Y105880D01*
X47460Y103340D01*
X44920D01*
X47460Y100800D01*
X44920Y98260D01*
X47460D01*
X50000Y95720D01*
Y121120D02*
X52540Y123660D01*
X55080D01*
X52540Y126200D01*
X55080Y128740D01*
X52540D01*
X50000Y131280D01*
X47460Y128740D01*
X44920D01*
X47460Y126200D01*
X44920Y123660D01*
X47460D01*
X50000Y121120D01*
Y146520D02*
X52540Y149060D01*
X55080D01*
X52540Y151600D01*
X55080Y154140D01*
X52540D01*
X50000Y156680D01*
X47460Y154140D01*
X44920D01*
X47460Y151600D01*
X44920Y149060D01*
X47460D01*
X50000Y146520D01*
D27*
X850190Y540490D02*
G03*
X850190Y540490I-5080J0D01*
G01*
X915080Y100000D02*
G03*
X915080Y100000I-5080J0D01*
G01*
X850190Y361420D02*
G03*
X850190Y361420I-5080J0D01*
G01*
X915080Y50000D02*
G03*
X915080Y50000I-5080J0D01*
G01*
X205080Y620000D02*
G03*
X205080Y620000I-5080J0D01*
G01*
X155080D02*
G03*
X155080Y620000I-5080J0D01*
G01*
Y540000D02*
G03*
X155080Y540000I-5080J0D01*
G01*
X438710Y361420D02*
G03*
X438710Y361420I-5080J0D01*
G01*
X915080Y500000D02*
G03*
X915080Y500000I-5080J0D01*
G01*
Y610000D02*
G03*
X915080Y610000I-5080J0D01*
G01*
Y450000D02*
G03*
X915080Y450000I-5080J0D01*
G01*
Y560000D02*
G03*
X915080Y560000I-5080J0D01*
G01*
X380080Y540000D02*
G03*
X380080Y540000I-5080J0D01*
G01*
X439980Y540490D02*
G03*
X439980Y540490I-5080J0D01*
G01*
M02*
