G04*
G04 #@! TF.GenerationSoftware,Altium Limited,Altium Designer,26.9.1 (10)*
G04*
G04 Layer_Color=255*
G04 Board_Origin=0|0*
%FSLAX44Y44*%
%MOMM*%
G71*
G04*
G04 #@! TF.SameCoordinates,B2B52973-217B-4F95-AEE4-472758282C3E*
G04*
G04*
G04 #@! TF.FilePolarity,Positive*
G04*
G01*
G75*
%ADD13C,1.7000*%
%ADD14R,3.5000X3.5000*%
%ADD15R,1.5000X1.5000*%
%ADD16R,1.5000X1.5000*%
%ADD17C,1.5000*%
%ADD24C,2.5000*%
%ADD25C,2.2000*%
D13*
X835000Y150000D02*
D03*
X935000D02*
D03*
X835000Y250000D02*
D03*
Y201930D02*
D03*
Y100000D02*
D03*
X725000Y90000D02*
D03*
X720000Y50000D02*
D03*
X150000Y385000D02*
D03*
X935000Y201930D02*
D03*
X860000Y250000D02*
D03*
Y100000D02*
D03*
X820000Y50000D02*
D03*
X750000Y90000D02*
D03*
X150000Y360000D02*
D03*
X810000Y100000D02*
D03*
Y250000D02*
D03*
X250000Y350000D02*
D03*
X910000Y385000D02*
D03*
X935000D02*
D03*
X460000Y650000D02*
D03*
Y600000D02*
D03*
Y625000D02*
D03*
X250000Y450000D02*
D03*
X150000Y410000D02*
D03*
X755000Y300990D02*
D03*
X730000D02*
D03*
D14*
X845110Y540490D02*
D03*
Y361420D02*
D03*
X433630D02*
D03*
X434900Y540490D02*
D03*
D15*
X680000Y50000D02*
D03*
X230000Y300000D02*
D03*
D16*
X50000Y50000D02*
D03*
D17*
Y177000D02*
D03*
X553000Y50000D02*
D03*
X357000Y300000D02*
D03*
X484000D02*
D03*
X255400D02*
D03*
X280800D02*
D03*
X306200D02*
D03*
X331600D02*
D03*
X382400D02*
D03*
X407800D02*
D03*
X433200D02*
D03*
X458600D02*
D03*
X509400D02*
D03*
X534800D02*
D03*
X560200D02*
D03*
X585600D02*
D03*
X611000D02*
D03*
X636400D02*
D03*
X661800D02*
D03*
X687200D02*
D03*
X654600Y50000D02*
D03*
X629200D02*
D03*
X603800D02*
D03*
X578400D02*
D03*
X527600D02*
D03*
X502200D02*
D03*
X476800D02*
D03*
X451400D02*
D03*
X426000D02*
D03*
X400600D02*
D03*
X375200D02*
D03*
X349800D02*
D03*
X324400D02*
D03*
X299000D02*
D03*
X273600D02*
D03*
X248200D02*
D03*
X222800D02*
D03*
X50000Y75400D02*
D03*
Y100800D02*
D03*
Y126200D02*
D03*
Y151600D02*
D03*
D24*
X950000Y250000D02*
D03*
Y350000D02*
D03*
X150000Y540000D02*
D03*
X340000Y350000D02*
D03*
X375000Y540000D02*
D03*
X340000Y450000D02*
D03*
D25*
X910000Y100000D02*
D03*
Y50000D02*
D03*
X200000Y620000D02*
D03*
X150000D02*
D03*
X910000Y500000D02*
D03*
Y610000D02*
D03*
Y450000D02*
D03*
Y560000D02*
D03*
M02*
