M48
;Layer_Color=9474304
;FILE_FORMAT=4:3
METRIC,LZ
;TYPE=PLATED
T01F00S00C0.900
T02F00S00C1.000
T03F00S00C1.300
%
T01
X0005Y0005
Y000754
Y001008
Y001262
Y001516
Y00177
X002228Y0005
X002482
X002736
X00299
X003244
X003498
X003752
X003824Y003
X00357
X003316
X003062
X002808
X002554
X0023
X004078
X004332
X004586
X00484
X005094
X005348
X005602
X005856
X00611
X006364
X006618
X006872
X0068Y0005
X006546
X006292
X006038
X005784
X00553
X005276
X005022
X004768
X004514
X00426
X004006
T02
X0015Y0036
Y00385
X0034Y0035
X0073Y0030099
X00755
X0081Y0025
X00835
X0086
X0095
Y0035
X00935Y00385
X0091
X0086Y001
X00835
X0081
X0046Y006
Y00625
Y0065
X0034Y0045
X0015Y0041
T03
X0043363Y0036142
X0084511
X0091Y001
Y0005
Y0045
Y005
Y0056
Y0061
X0084511Y0054049
X004349
X00375Y0054
X0015
Y0062
X002
M30
